<svg xmlns="http://www.w3.org/2000/svg" viewBox="0 0 100 100"><defs><style>.cls-1{fill:none;stroke:#000;stroke-linecap:round;stroke-linejoin:round;stroke-width:4px;}</style></defs><title>aether</title><g id="Circles"><path d="M50,5A45,45,0,1,1,5,50,45.05,45.05,0,0,1,50,5m0-5a50,50,0,1,0,50,50A50,50,0,0,0,50,0Z"/></g><g id="Icons"><path class="cls-1" d="M57.65,43.71a10.11,10.11,0,0,1,5.87-5.46,12.47,12.47,0,0,1,12.85,3h0a12.46,12.46,0,0,1,0,17.58h0a12.47,12.47,0,0,1-12.85,3,10.11,10.11,0,0,1-5.87-5.46h0a10.33,10.33,0,0,0-5.16-5.16L50,50l-2.5-1.13a10.33,10.33,0,0,1-5.16-5.16h0a10,10,0,0,0-5.66-5.38,12.43,12.43,0,1,0,0,23.36,10,10,0,0,0,5.66-5.38h0a10.33,10.33,0,0,1,5.16-5.16L50,50l2.5-1.13a10.33,10.33,0,0,0,5.16-5.16Z"/><circle cx="50" cy="32.02" r="2.5"/><circle cx="50" cy="67.98" r="2.5"/><circle cx="50" cy="76.27" r="4"/></g></svg>