<svg xmlns="http://www.w3.org/2000/svg" viewBox="0 0 100 100"><defs><style>.cls-1{fill:none;stroke:#000;stroke-linecap:round;stroke-miterlimit:10;stroke-width:4px;}</style></defs><title>air</title><g id="Circles"><path d="M50,5A45,45,0,1,1,5,50,45.05,45.05,0,0,1,50,5m0-5a50,50,0,1,0,50,50A50,50,0,0,0,50,0Z"/></g><g id="Icons"><path class="cls-1" d="M20,52.38A8.4,8.4,0,0,1,28.4,44H59.66a10.82,10.82,0,1,0,0-21.64"/><line class="cls-1" x1="34.46" y1="29.55" x2="53.51" y2="29.55"/><line class="cls-1" x1="28.92" y1="36.77" x2="40" y2="36.77"/><path class="cls-1" d="M34.24,51.2H72.79a7.22,7.22,0,0,1,0,14.43"/><line class="cls-1" x1="35.98" y1="58.41" x2="24.95" y2="58.41"/><line class="cls-1" x1="46.22" y1="65.04" x2="35.19" y2="65.04"/><line class="cls-1" x1="56.87" y1="43.98" x2="31.36" y2="43.98"/><path class="cls-1" d="M54.44,65.63a3,3,0,1,1,0,6H28.08"/></g></svg>