<svg xmlns="http://www.w3.org/2000/svg" viewBox="0 0 100 100"><defs><style>.cls-1{fill:none;stroke:#000;stroke-linecap:round;stroke-miterlimit:10;stroke-width:4px;}</style></defs><title>earth</title><g id="Circles"><path d="M50,5A45,45,0,1,1,5,50,45.05,45.05,0,0,1,50,5m0-5a50,50,0,1,0,50,50A50,50,0,0,0,50,0Z"/></g><g id="Icons"><path class="cls-1" d="M63.43,56.68,41.91,19.89a.23.23,0,0,0-.4,0L20,56.68"/><path class="cls-1" d="M80,56.68l-16.37-28a.23.23,0,0,0-.4,0L55.14,42.51"/><line class="cls-1" x1="50.28" y1="34.2" x2="40.57" y2="34.2"/><path class="cls-1" d="M80,65.46a116.54,116.54,0,0,0-30-3.69,116.54,116.54,0,0,0-30,3.69"/><path class="cls-1" d="M80,72.23a116.54,116.54,0,0,0-30-3.69,116.54,116.54,0,0,0-30,3.69"/></g></svg>