<svg xmlns="http://www.w3.org/2000/svg" viewBox="0 0 100 100"><defs><style>.cls-1{fill:none;stroke:#000;stroke-linecap:round;stroke-miterlimit:10;stroke-width:4px;}</style></defs><title>fire</title><g id="Circles"><path d="M50,5A45,45,0,1,1,5,50,45.05,45.05,0,0,1,50,5m0-5a50,50,0,1,0,50,50A50,50,0,0,0,50,0Z"/></g><g id="Icons"><path class="cls-1" d="M47.81,20.07a.21.21,0,0,1,.36.2c-.94,3.23-3.45,14.33,4.26,21.27,6.7,6,8.47,11,8.94,13.27a.21.21,0,0,0,.41,0c.65-3.71,2.18-14.65-1.14-20.19a.2.2,0,0,1,.28-.28c2.63,1.65,11,8,11,21.36C71.94,71.13,59.65,79.56,56,80a.2.2,0,0,1-.22-.25c.36-1.81,2.1-12.71-5.57-24.49C42,42.57,36,33.35,47.81,20.07Z"/><path class="cls-1" d="M34.48,41a.21.21,0,0,1,.38.1C35,42.74,36,48,41.68,55.15,46.82,61.63,53,70.7,49.93,79.69a.21.21,0,0,1-.34.09c-1.45-1.33-5.92-4.92-12.13-10C30.89,64.3,21.68,57.48,34.48,41Z"/></g></svg>