<svg xmlns="http://www.w3.org/2000/svg" viewBox="0 0 100 100"><defs><style>.cls-1{fill:none;stroke:#000;stroke-linecap:round;stroke-linejoin:round;stroke-width:5px;}</style></defs><title>life</title><g id="Circles"><path d="M50,5A45,45,0,1,1,5,50,45.05,45.05,0,0,1,50,5m0-5a50,50,0,1,0,50,50A50,50,0,0,0,50,0Z"/></g><g id="Icons"><path class="cls-1" d="M38.52,22.28a15,15,0,0,0,3.22,28.63,8.31,8.31,0,1,1,16.52-1.82,15,15,0,0,1,3.22,28.63,30,30,0,0,0-23-55.44Z"/><path class="cls-1" d="M58.26,49.09a8.31,8.31,0,1,1-16.52,1.82,15,15,0,0,1-3.22-28.63,30,30,0,1,0,23,55.44,15,15,0,0,0-3.22-28.63Z"/><path d="M51.54,49.25a1.71,1.71,0,0,0-3.16,1.31.38.38,0,0,0,0,.1.41.41,0,0,0,.05.09,1.71,1.71,0,0,0,3.16-1.31.38.38,0,0,0,0-.1A.41.41,0,0,0,51.54,49.25Z"/><circle cx="55.74" cy="63.86" r="2"/><circle cx="44.26" cy="36.14" r="2"/></g></svg>