<svg xmlns="http://www.w3.org/2000/svg" viewBox="0 0 100 100"><defs><style>.cls-1{fill:none;stroke:#000;stroke-linecap:round;stroke-linejoin:round;stroke-width:4px;}</style></defs><title>light</title><g id="Circles"><path d="M50,5A45,45,0,1,1,5,50,45.05,45.05,0,0,1,50,5m0-5a50,50,0,1,0,50,50A50,50,0,0,0,50,0Z"/></g><g id="Icons"><circle class="cls-1" cx="50" cy="50" r="30"/><circle class="cls-1" cx="50" cy="50" r="5"/><circle cx="64.14" cy="35.86" r="4"/><circle cx="35.86" cy="64.14" r="4"/><path class="cls-1" d="M41.64,31.85a19.77,19.77,0,0,1-9.79,9.79"/><path class="cls-1" d="M58.36,68.15a19.77,19.77,0,0,1,9.79-9.79"/></g></svg>