<svg xmlns="http://www.w3.org/2000/svg" viewBox="0 0 100 100"><defs><style>.cls-1{fill:none;stroke:#000;stroke-linecap:round;stroke-miterlimit:10;stroke-width:4px;}</style></defs><title>lightning</title><g id="Circles"><path d="M50,5A45,45,0,1,1,5,50,45.05,45.05,0,0,1,50,5m0-5a50,50,0,1,0,50,50A50,50,0,0,0,50,0Z"/></g><g id="Icons"><line class="cls-1" x1="45.47" y1="20" x2="74.14" y2="48.66"/><path class="cls-1" d="M53,27.5,29.92,50.56a.21.21,0,0,0,0,.31L42.58,63.53a.22.22,0,0,1,0,.3l-6.89,6.89"/><line class="cls-1" x1="35.04" y1="55.99" x2="24.97" y2="66.05"/><path class="cls-1" d="M68.14,42.66,61,49.8a.2.2,0,0,0,0,.3l14,14"/><path class="cls-1" d="M59.81,34.33,45.17,49a.21.21,0,0,0,0,.31L57.92,62a.22.22,0,0,1,0,.3l-7.8,7.8a.22.22,0,0,0,0,.3L59.69,80"/><line class="cls-1" x1="54.2" y1="66.05" x2="59.64" y2="71.5"/></g></svg>