<svg xmlns="http://www.w3.org/2000/svg" viewBox="0 0 100 100"><defs><style>.cls-1{fill:none;stroke:#000;stroke-linecap:round;stroke-miterlimit:10;stroke-width:4px;}</style></defs><title>metal</title><g id="Circles"><path d="M50,5A45,45,0,1,1,5,50,45.05,45.05,0,0,1,50,5m0-5a50,50,0,1,0,50,50A50,50,0,0,0,50,0Z"/></g><g id="Icons"><path class="cls-1" d="M33.85,70.73,25.31,43.52a.38.38,0,0,1,0-.15l6.85-21.21a.25.25,0,0,1,.48,0l14,44.56"/><path class="cls-1" d="M45.06,61.62,72.48,27.67a.25.25,0,0,1,.42,0L78.68,39.8a.25.25,0,0,1,0,.27L53.79,70.73"/><path class="cls-1" d="M41.53,50.51,45,15.91a.25.25,0,0,1,.35-.21l11.07,4.77a.25.25,0,0,1,.15.26l-3.07,30.4"/><line class="cls-1" x1="40" y1="75.19" x2="48" y2="75.19"/><line class="cls-1" x1="37" y1="81.47" x2="62.4" y2="81.47"/></g></svg>