<svg xmlns="http://www.w3.org/2000/svg" viewBox="0 0 100 100"><defs><style>.cls-1{fill:none;stroke:#000;stroke-linecap:round;stroke-miterlimit:10;stroke-width:4px;}</style></defs><title>plasma</title><g id="Circles"><path d="M50,5A45,45,0,1,1,5,50,45.05,45.05,0,0,1,50,5m0-5a50,50,0,1,0,50,50A50,50,0,0,0,50,0Z"/></g><g id="Icons"><path class="cls-1" d="M49.76,15.38a.25.25,0,0,1,.48,0l6.32,27.89a.29.29,0,0,0,.17.17l23.09,6.32a.25.25,0,0,1,0,.48L56.73,56.56a.29.29,0,0,0-.17.17L50.24,84.62a.25.25,0,0,1-.48,0L43.44,56.73a.29.29,0,0,0-.17-.17L20.18,50.24a.25.25,0,0,1,0-.48l23.09-6.32a.29.29,0,0,0,.17-.17Z"/><path class="cls-1" d="M70.38,30,59,49.88a.26.26,0,0,0,0,.24L70.38,70a.25.25,0,0,1-.34.34L50.12,59a.26.26,0,0,0-.24,0L30,70.38a.25.25,0,0,1-.34-.34L41,50.12a.25.25,0,0,0,0-.24L29.62,30a.25.25,0,0,1,.34-.34L49.88,41a.25.25,0,0,0,.24,0L70,29.62A.25.25,0,0,1,70.38,30Z"/><circle class="cls-1" cx="50" cy="50" r="3.68"/></g></svg>