<svg xmlns="http://www.w3.org/2000/svg" viewBox="0 0 100 100"><defs><style>.cls-1,.cls-2{fill:none;stroke:#000;stroke-miterlimit:10;stroke-width:4px;}.cls-2{stroke-linecap:round;}</style></defs><title>void</title><g id="Circles"><path d="M50,5A45,45,0,1,1,5,50,45.05,45.05,0,0,1,50,5m0-5a50,50,0,1,0,50,50A50,50,0,0,0,50,0Z"/></g><g id="Icons"><circle class="cls-1" cx="50" cy="50" r="30"/><path class="cls-2" d="M79.41,55.94a20.09,20.09,0,0,1-21.55,1.68"/><path class="cls-2" d="M77.28,37.52a20.65,20.65,0,0,1-.87,2.34A20,20,0,0,1,60.84,51.55"/><path class="cls-2" d="M64.73,23.87a19,19,0,0,1,.67,2.41,20,20,0,0,1-5.72,18.6"/><path class="cls-2" d="M46.56,20.2a20.5,20.5,0,0,1,2,1.55,20,20,0,0,1,6.3,18.42"/><path class="cls-2" d="M29.7,27.91a21.1,21.1,0,0,1,2.5.11A20,20,0,0,1,48.12,39.21"/><path class="cls-2" d="M20.59,44.06a20.09,20.09,0,0,1,21.55-1.68"/><path class="cls-2" d="M22.72,62.48a20.65,20.65,0,0,1,.87-2.34A20,20,0,0,1,39.16,48.45"/><path class="cls-2" d="M35.27,76.13a19,19,0,0,1-.67-2.41,20,20,0,0,1,5.72-18.6"/><path class="cls-2" d="M53.44,79.8a20.5,20.5,0,0,1-2-1.55,20,20,0,0,1-6.3-18.42"/><path class="cls-2" d="M70.3,72.09A21.1,21.1,0,0,1,67.8,72,20,20,0,0,1,51.88,60.79"/><circle class="cls-2" cx="50" cy="50" r="6"/><circle class="cls-2" cx="50" cy="50" r="6"/><circle cx="50" cy="50" r="2"/></g></svg>