<svg xmlns="http://www.w3.org/2000/svg" viewBox="0 0 100 100"><defs><style>.cls-1{fill:none;stroke:#000;stroke-linecap:round;stroke-linejoin:round;stroke-width:4px;}</style></defs><title>water</title><g id="Circles"><path d="M50,5A45,45,0,1,1,5,50,45.05,45.05,0,0,1,50,5m0-5a50,50,0,1,0,50,50A50,50,0,0,0,50,0Z"/></g><g id="Icons"><path class="cls-1" d="M80,36.35h0a4.42,4.42,0,0,0-8.57,0h0a4.42,4.42,0,0,1-8.57,0h0a4.42,4.42,0,0,0-8.57,0h0a4.42,4.42,0,0,1-8.58,0h0a4.42,4.42,0,0,0-8.57,0h0a4.42,4.42,0,0,1-8.57,0h0a4.42,4.42,0,0,0-8.57,0h0"/><path class="cls-1" d="M80,50h0a4.42,4.42,0,0,0-8.57,0h0a4.42,4.42,0,0,1-8.57,0h0a4.42,4.42,0,0,0-8.57,0h0a4.42,4.42,0,0,1-8.58,0h0a4.42,4.42,0,0,0-8.57,0h0a4.42,4.42,0,0,1-8.57,0h0A4.42,4.42,0,0,0,20,50h0"/><path class="cls-1" d="M80,63.65h0a4.42,4.42,0,0,0-8.57,0h0a4.42,4.42,0,0,1-8.57,0h0a4.42,4.42,0,0,0-8.57,0h0a4.42,4.42,0,0,1-8.58,0h0a4.42,4.42,0,0,0-8.57,0h0a4.42,4.42,0,0,1-8.57,0h0a4.42,4.42,0,0,0-8.57,0h0"/></g></svg>